<?xml version="1.0" encoding="utf-8"?>
<!-- Generator: Adobe Illustrator 26.3.1, SVG Export Plug-In . SVG Version: 6.00 Build 0)  -->
<svg version="1.1" xmlns="http://www.w3.org/2000/svg" xmlns:xlink="http://www.w3.org/1999/xlink" x="0px" y="0px"
	 viewBox="0 0 512 512" style="enable-background:new 0 0 512 512;" xml:space="preserve">
<style type="text/css">
	.st0{fill:#E83E82;}
	.st1{fill:#FFFFFF;}
	.st2{fill:none;stroke:#FFFFFF;stroke-width:10;stroke-miterlimit:10;}
</style>
<g id="Background">
	<rect x="0" class="st0" width="512" height="512"/>
</g>
<g id="Foreground">
	<g>
		<path class="st1" d="M140.9,326.3c-2-1-3-2.4-3-4.2c0-0.7,0.2-1.5,0.5-2.2c1.3-2.8,3.4-6.6,6.1-11.3c2.7-4.7,5.5-9.5,8.4-14.2h-33
			c-1.7,0-2.9-0.5-3.6-1.6c-0.7-1-1.1-2.1-1.1-3.3c0-1.3,0.4-2.5,1.3-3.3c0.9-0.9,2-1.3,3.3-1.3h39.5c0.9-1.3,2.3-3.2,4.1-5.6
			c1.8-2.4,3.6-4.7,5.4-7c1.8-2.3,3.2-3.9,4.1-5h-57.6c-1.7,0-2.9-0.5-3.6-1.6c-0.7-1-1.1-2.1-1.1-3.1c0-1.3,0.4-2.5,1.2-3.4
			c0.8-0.9,2-1.4,3.4-1.4h59.1v-18.4h-49c-1.7,0-2.9-0.5-3.7-1.6c-0.8-1-1.2-2.1-1.2-3.1c0-1.1,0.4-2.2,1.3-3.3c0.9-1,2-1.6,3.5-1.6
			h49v-13.8H121c-1.7,0-2.9-0.5-3.6-1.6c-0.7-1.1-1.1-2.2-1.1-3.2c0-1.1,0.4-2.2,1.3-3.2c0.9-1,2-1.5,3.3-1.5h40
			c-0.5-0.4-1.1-1-1.9-1.9c-0.7-0.8-2-2.4-3.8-4.7c-1.8-2.3-4.6-6-8.5-11c-0.7-0.8-1.1-1.8-1.1-2.8c0-1.3,0.7-2.6,2-3.9
			c0.8-0.7,1.8-1.1,2.8-1.1c1.6,0,2.8,0.6,3.7,1.9l12.8,16.6c0.8,0.8,1.2,1.8,1.2,2.8c0,0.8-0.3,1.6-0.8,2.3
			c-0.5,0.7-1.1,1.3-1.9,1.7h73.3c1.7,0,2.9,0.5,3.6,1.5c0.7,1,1.1,2,1.1,3.2c0,1.3-0.4,2.5-1.2,3.4c-0.8,0.9-2,1.4-3.4,1.4H184V230
			h47.1c1.7,0,2.9,0.5,3.7,1.6s1.2,2.2,1.2,3.2c0,1.3-0.4,2.5-1.3,3.3c-0.9,0.9-2,1.3-3.5,1.3H184v18.4h57.2c1.7,0,2.9,0.5,3.6,1.6
			c0.7,1,1.1,2.1,1.1,3.3c0,1-0.4,2.1-1.2,3.1c-0.8,1-2,1.6-3.4,1.6h-56.2c0,0.2-0.5,1-1.6,2.3c-1.1,1.3-2.4,3-4,4.9
			c-1.6,1.9-3.1,3.8-4.5,5.7c-1.5,1.9-2.6,3.4-3.6,4.7h65.3c1.7,0,2.9,0.5,3.6,1.5c0.7,1,1.1,2,1.1,3.2c0,1.3-0.4,2.5-1.2,3.4
			c-0.8,0.9-2,1.4-3.4,1.4h-41.1c4.7,3.9,8.9,7.8,12.8,11.7c3.9,3.8,8,8,12.2,12.6c0.9,1,1.4,2.2,1.4,3.4c0,1.3-0.5,2.4-1.6,3.3
			c-0.9,0.9-2,1.4-3.3,1.4c-1.3,0-2.5-0.5-3.4-1.6c-4-4-7.4-7.5-10.2-10.3c-2.7-2.9-5.2-5.4-7.5-7.6c-2.2-2.2-4.5-4.3-6.8-6.3
			c-2.3-2-5.2-4.1-8.5-6.5h-16.3c-1.9,2.8-3.9,6-6.1,9.6c-2.2,3.6-4.4,7.1-6.4,10.6c-2,3.5-3.7,6.6-4.9,9.3c-0.4,1-1,1.8-1.8,2.3
			c-0.8,0.5-1.6,0.7-2.4,0.7C142.2,326.8,141.5,326.6,140.9,326.3z M196.7,205.4c-1.2-0.9-1.9-2.2-1.9-3.7c0-1.1,0.4-2.1,1.2-3
			l12.8-14.6c1.2-1.2,2.4-1.9,3.6-1.9c1,0,2.1,0.4,3.1,1.2c1.1,0.8,1.7,2,1.7,3.4c0,1-0.4,2.1-1.2,3.1l-12.4,14.8
			c-1.2,1.2-2.4,1.9-3.6,1.9c-0.5,0-1.1-0.1-1.6-0.4C197.8,206,197.3,205.8,196.7,205.4z"/>
		<path class="st1" d="M263,249.3c-0.7,0-1.3-0.2-1.9-0.5c-2-1-3-2.5-3-4.5c0-0.8,0.2-1.6,0.6-2.3c1.5-3.2,3.5-6.8,6.1-10.9
			s5.5-8.2,8.7-12.5c3.2-4.3,6.4-8.5,9.6-12.5s6.3-7.7,9.1-10.9c2.8-3.2,5-5.7,6.7-7.5c1-1,2.3-1.6,3.7-1.6c1.5,0,2.5,0.5,3.3,1.4
			c1,1.1,1.6,2.4,1.6,3.9c0,1-0.4,2.1-1.2,3.1c-4.7,5.4-8.9,10.3-12.6,14.6s-7.1,8.5-10.1,12.3c-3,3.8-5.8,7.8-8.4,11.7
			c-2.6,4-5.1,8.4-7.5,13.1c-0.4,1-1.1,1.8-2.1,2.3C264.7,249.1,263.8,249.3,263,249.3z M286.8,326.8c-1.3,0-2.5-0.4-3.4-1.2
			c-0.9-0.8-1.5-1.9-1.6-3.3c-0.4-6.7-0.8-13-1-18.8c-0.3-5.8-0.4-11.4-0.4-16.8c0-9.2,0.5-18.2,1.4-26.9c-2.5,3.8-4.6,7.7-6.5,11.6
			c-1.8,3.9-3.3,7-4.4,9.3c-0.8,2.1-2.3,3.1-4.5,3.1c-0.7,0-1.4-0.2-2-0.5c-1.1-0.5-1.9-1.2-2.4-2c-0.5-0.8-0.7-1.7-0.7-2.5
			c0-0.5,0.1-1.2,0.3-2c1-2.8,2.7-6.3,5-10.5c2.3-4.2,4.9-8.7,7.9-13.4c3-4.7,6.1-9.4,9.3-14c3.2-4.6,6.3-8.8,9.3-12.5
			c3-3.7,5.5-6.6,7.5-8.7c0.9-1.2,2.1-1.9,3.6-1.9c1.1,0,2.2,0.4,3.3,1.1c1.2,1.2,1.9,2.5,1.9,3.9c0,0.9-0.4,2-1.1,3.3
			c-5.6,7.2-10.4,13.4-14.3,18.6c-3.9,5.2-7.2,9.8-9.8,13.6c1-0.5,2-0.8,2.8-0.8c1.5,0,2.7,0.5,3.7,1.6c1,1.1,1.3,2.3,1,3.7
			c-0.3,4.7-0.6,9.6-0.8,14.8c-0.2,5.2-0.3,10.4-0.3,15.6c0,5.2,0.1,10.4,0.3,15.6c0.2,5.2,0.5,10.1,0.8,14.8c0.4,1.6,0,2.9-1.2,3.9
			C289.1,326.3,287.9,326.8,286.8,326.8z M310.9,299.9c-1.6,0-2.8-0.5-3.7-1.5c-0.9-1-1.4-2.3-1.4-4c0.4-4.6,0.8-8.5,1.2-11.7
			c0.4-3.2,0.8-6.2,1.3-8.9c0.5-2.7,1.1-5.5,1.9-8.6c0.7-3,1.6-6.6,2.5-10.7c0.2-1.1,0.8-2,1.6-2.7c0.9-0.7,1.8-1,2.9-1
			c1.9,0,3.3,0.8,4.2,2.3c0.9,1.5,1.2,2.9,0.8,4.1c-2,7.8-3.5,14.9-4.6,21.4c-1.1,6.5-1.6,11.7-1.6,15.8c0,1.7-0.5,2.9-1.6,3.8
			C313.2,299.1,312.1,299.7,310.9,299.9z M334.1,323.8c-1.5,0-2.6-0.5-3.6-1.4c-0.9-0.9-1.4-2.1-1.4-3.6v-84.3h-16.5
			c-1.8,0-3.1-0.5-3.9-1.6c-0.8-1.1-1.2-2.3-1.2-3.5c0-1.5,0.5-2.6,1.4-3.6c0.9-0.9,2.2-1.4,3.7-1.4h16.5v-29.6c0-1.8,0.5-3,1.6-3.8
			c1-0.8,2.2-1.2,3.4-1.2c1.3,0,2.5,0.5,3.5,1.4c1,0.9,1.5,2.1,1.5,3.6v29.6h16.5c1.5,0,2.7,0.5,3.7,1.4c1,0.9,1.5,2.1,1.5,3.6
			c0,1.9-0.6,3.2-1.7,4c-1.1,0.8-2.3,1.2-3.4,1.2h-16.5v84.3c0,1.7-0.5,2.9-1.6,3.7C336.3,323.4,335.2,323.8,334.1,323.8z
			 M358.2,298.9c-1.7,0-2.9-0.5-3.8-1.4c-0.9-0.9-1.4-2-1.6-3.3c0-3.7-1-8.6-2.9-14.5c-1.9-5.9-4.3-13.3-7.1-22.1
			c-0.3-0.5-0.5-1-0.5-1.6c0-1.2,0.5-2.4,1.6-3.6c1.1-1.1,2.3-1.7,3.7-1.7c1.1,0,2.1,0.3,2.9,1c0.8,0.7,1.3,1.4,1.6,2.3
			c2.9,8,5.2,15.1,6.8,21.4c1.7,6.3,2.9,12.2,3.7,17.8c0.2,1.5-0.1,2.7-1,3.7C360.8,298.1,359.7,298.7,358.2,298.9z M357.3,219.3
			c-0.6,0.2-1.1,0.3-1.6,0.3c-0.9,0-1.9-0.3-2.8-0.9c-0.9-0.6-1.6-1.4-2-2.4l-5.9-15.6c-0.1-0.3-0.2-0.6-0.2-0.9
			c-0.1-0.3-0.1-0.6-0.1-0.9c0-1.5,0.5-2.6,1.5-3.5c1-0.9,2.1-1.3,3.3-1.3c2.3,0,3.8,1,4.7,3.1l6.1,15.4c0.1,0.4,0.2,0.8,0.2,1.1
			c0.1,0.3,0.1,0.6,0.1,0.9C360.5,216.6,359.4,218.1,357.3,219.3z M388.2,326.6c-2-0.2-3.3-0.9-4-2c-0.7-1.1-1-2.4-0.9-3.7
			c1.1-7.7,1.9-16.3,2.2-26c0.3-9.6,0.5-19.3,0.5-29.1v-17.3h-20.5c-1.3,0-2.5-0.5-3.5-1.4c-1-0.9-1.5-2.1-1.5-3.6
			c0-1.5,0.5-2.6,1.4-3.6c0.9-0.9,2.1-1.4,3.6-1.4h39c1.5,0,2.7,0.5,3.7,1.4c1,0.9,1.5,2.1,1.5,3.6c0,1.7-0.5,2.9-1.6,3.7
			c-1.1,0.8-2.3,1.2-3.5,1.2h-8.7c0,14.8-0.1,27-0.2,36.6c-0.2,9.5-0.4,17.2-0.8,23.1c-0.4,5.9-0.9,10.6-1.5,14.2
			c-0.1,1.1-0.6,2.1-1.6,3C390.7,326.2,389.6,326.6,388.2,326.6z M367.8,211.8c-1.3,0-2.5-0.5-3.5-1.5c-1-1-1.5-2.2-1.5-3.5
			c0-1.7,0.5-2.9,1.6-3.7c1.1-0.8,2.2-1.2,3.3-1.2h35.3c1.6,0,2.8,0.5,3.7,1.4c0.9,0.9,1.4,2.1,1.4,3.6c0,1.3-0.5,2.5-1.5,3.5
			c-1,1-2.2,1.5-3.7,1.5H367.8z"/>
	</g>
	<g>
		<rect x="56" y="122.7" class="st2" width="400" height="266.7"/>
		<line class="st2" x1="56" y1="389.3" x2="87.4" y2="357.9"/>
		<line class="st2" x1="56" y1="122.7" x2="87.4" y2="154.1"/>
		<line class="st2" x1="456" y1="122.7" x2="424.6" y2="154.1"/>
		<line class="st2" x1="456" y1="389.3" x2="424.6" y2="357.9"/>
		<rect x="87.1" y="153.8" class="st2" width="337.8" height="204.4"/>
	</g>
	<g>
	</g>
	<g>
	</g>
	<g>
	</g>
	<g>
	</g>
	<g>
	</g>
	<g>
	</g>
</g>
</svg>
