<?xml version="1.0" encoding="utf-8"?>
<!-- Generator: Adobe Illustrator 26.3.1, SVG Export Plug-In . SVG Version: 6.00 Build 0)  -->
<svg version="1.1" xmlns="http://www.w3.org/2000/svg" xmlns:xlink="http://www.w3.org/1999/xlink" x="0px" y="0px"
	 viewBox="0 0 512 512" style="enable-background:new 0 0 512 512;" xml:space="preserve">
<style type="text/css">
	.st0{fill:#E83E82;}
	.st1{fill:#FFFFFF;}
	.st2{fill:none;stroke:#FFFFFF;stroke-width:10;stroke-miterlimit:10;}
</style>
<g id="Background">
	<rect x="-344" y="-59" class="st0" width="1200" height="630"/>
</g>
<g id="Foreground">
	<g>
		<path class="st1" d="M74.7,366.7c-3.1-1.6-4.7-3.8-4.7-6.6c0-1.1,0.2-2.3,0.7-3.4c2.1-4.4,5.3-10.3,9.6-17.8
			c4.2-7.4,8.7-14.9,13.2-22.4H41.6c-2.6,0-4.5-0.8-5.6-2.5c-1.1-1.6-1.7-3.3-1.7-5.1c0-2.1,0.7-3.9,2.1-5.3
			c1.4-1.4,3.1-2.1,5.3-2.1h62.2c1.5-2.1,3.6-5.1,6.5-8.8c2.9-3.8,5.7-7.4,8.6-11c2.9-3.6,5-6.2,6.5-7.8H34.8
			c-2.6,0-4.5-0.8-5.6-2.5c-1.1-1.6-1.7-3.3-1.7-4.9c0-2.1,0.7-3.9,2-5.4c1.3-1.5,3.1-2.2,5.4-2.2h93.1V230H50.7
			c-2.6,0-4.5-0.8-5.8-2.5c-1.2-1.6-1.8-3.3-1.8-4.9c0-1.8,0.7-3.5,2.1-5.1c1.4-1.6,3.2-2.5,5.5-2.5h77.2v-21.8H43.3
			c-2.6,0-4.5-0.9-5.6-2.6c-1.1-1.7-1.7-3.4-1.7-5c0-1.8,0.7-3.5,2.1-5c1.4-1.6,3.1-2.3,5.3-2.3h63c-0.8-0.7-1.8-1.6-2.9-2.9
			c-1.1-1.3-3.1-3.8-6-7.5c-2.9-3.7-7.3-9.4-13.4-17.3c-1.1-1.3-1.7-2.8-1.7-4.4c0-2.1,1.1-4.2,3.2-6.1c1.3-1.1,2.8-1.7,4.4-1.7
			c2.4,0,4.4,1,5.9,2.9l20.1,26.2c1.3,1.3,2,2.8,2,4.4c0,1.3-0.4,2.5-1.2,3.7c-0.8,1.1-1.8,2-2.9,2.7H229c2.6,0,4.5,0.8,5.6,2.3
			c1.1,1.6,1.7,3.2,1.7,5c0,2.1-0.7,3.9-2,5.4c-1.3,1.5-3.1,2.2-5.4,2.2h-86.5v21.8h74.2c2.6,0,4.5,0.9,5.8,2.6
			c1.2,1.7,1.8,3.4,1.8,5c0,2.1-0.7,3.9-2.1,5.3c-1.4,1.4-3.2,2.1-5.5,2.1h-74.2v28.9h90.2c2.6,0,4.5,0.8,5.6,2.5
			c1.1,1.6,1.7,3.3,1.7,5.1c0,1.6-0.7,3.3-2,4.9c-1.3,1.6-3.1,2.5-5.4,2.5h-88.4c0,0.3-0.9,1.6-2.6,3.7c-1.7,2.1-3.8,4.7-6.2,7.7
			c-2.4,3-4.8,6-7.1,8.9c-2.3,2.9-4.2,5.4-5.6,7.3h102.9c2.6,0,4.5,0.8,5.6,2.3c1.1,1.6,1.7,3.2,1.7,5c0,2.1-0.7,3.9-2,5.4
			c-1.3,1.5-3.1,2.2-5.4,2.2h-64.7c7.4,6.2,14.1,12.3,20.2,18.4s12.5,12.7,19.2,19.8c1.5,1.6,2.2,3.4,2.2,5.4c0,2.1-0.8,3.8-2.4,5.1
			c-1.5,1.5-3.2,2.2-5.1,2.2c-2.1,0-3.9-0.8-5.4-2.5c-6.4-6.4-11.7-11.8-16-16.3c-4.3-4.5-8.2-8.5-11.8-12
			c-3.5-3.5-7.1-6.8-10.8-9.9c-3.7-3.1-8.1-6.5-13.4-10.3h-25.7c-2.9,4.4-6.2,9.4-9.7,15.1c-3.5,5.6-6.9,11.2-10,16.7
			c-3.2,5.5-5.8,10.3-7.7,14.6c-0.7,1.6-1.6,2.8-2.8,3.6s-2.5,1.1-3.8,1.1C76.7,367.5,75.7,367.2,74.7,366.7z M162.7,176.4
			c-2-1.5-2.9-3.4-2.9-5.9c0-1.8,0.7-3.3,2-4.7l20.1-23c2-2,3.8-2.9,5.6-2.9c1.6,0,3.3,0.7,4.9,2c1.8,1.3,2.7,3.1,2.7,5.4
			c0,1.6-0.7,3.3-2,4.9l-19.6,23.3c-2,2-3.8,2.9-5.6,2.9c-0.8,0-1.7-0.2-2.6-0.6C164.3,177.3,163.5,176.9,162.7,176.4z"/>
		<path class="st1" d="M267,245.5c-1.1,0-2.1-0.2-2.9-0.7c-3.1-1.6-4.7-4-4.7-7.1c0-1.3,0.3-2.5,1-3.7c2.3-5.1,5.5-10.8,9.7-17.1
			c4.2-6.4,8.7-12.9,13.7-19.7c5-6.8,10-13.4,15.2-19.7c5.1-6.4,9.9-12.1,14.3-17.1c4.4-5.1,7.9-9,10.5-11.8
			c1.6-1.6,3.6-2.4,5.9-2.4c2.3,0,4,0.7,5.1,2.2c1.6,1.8,2.5,3.8,2.5,6.1c0,1.6-0.7,3.3-2,4.9c-7.3,8.5-14,16.2-19.8,23
			c-5.9,6.9-11.2,13.3-15.9,19.4c-4.7,6-9.1,12.2-13.2,18.5c-4.1,6.3-8,13.2-11.8,20.7c-0.7,1.6-1.8,2.8-3.3,3.6
			C269.8,245.1,268.3,245.5,267,245.5z M304.5,367.5c-2.1,0-3.9-0.7-5.4-2c-1.5-1.3-2.3-3-2.4-5.1c-0.7-10.6-1.2-20.5-1.6-29.6
			c-0.4-9.1-0.6-18-0.6-26.5c0-14.5,0.7-28.7,2.2-42.4c-3.9,6-7.3,12.1-10.2,18.3c-2.9,6.1-5.2,11-7,14.6c-1.3,3.3-3.7,4.9-7.1,4.9
			c-1.1,0-2.2-0.2-3.2-0.7c-1.8-0.8-3.1-1.9-3.8-3.2c-0.7-1.3-1.1-2.6-1.1-3.9c0-0.8,0.2-1.9,0.5-3.2c1.6-4.4,4.2-9.9,7.8-16.5
			c3.6-6.6,7.8-13.6,12.5-21.1c4.7-7.4,9.6-14.8,14.7-22c5.1-7.3,9.9-13.8,14.6-19.7c4.7-5.9,8.6-10.5,11.9-13.7
			c1.5-2,3.3-2.9,5.6-2.9c1.8,0,3.5,0.6,5.1,1.7c2,2,2.9,4,2.9,6.1c0,1.5-0.6,3.2-1.7,5.1c-8.8,11.3-16.3,21-22.5,29.3
			c-6.2,8.2-11.4,15.4-15.4,21.4c1.6-0.8,3.1-1.2,4.4-1.2c2.3,0,4.2,0.9,5.8,2.6c1.6,1.7,2.1,3.6,1.6,5.8
			c-0.5,7.3-0.9,15.1-1.2,23.3c-0.3,8.2-0.5,16.3-0.5,24.5c0,8.2,0.2,16.3,0.5,24.5c0.3,8.2,0.7,15.9,1.2,23.3c0.7,2.5,0,4.5-2,6.1
			C308.2,366.7,306.3,367.5,304.5,367.5z M342.5,325.1c-2.4,0-4.4-0.8-5.9-2.3c-1.5-1.5-2.2-3.6-2.2-6.2c0.7-7.2,1.3-13.3,1.8-18.4
			c0.6-5.1,1.3-9.7,2.1-14c0.8-4.2,1.8-8.7,2.9-13.5c1.1-4.7,2.4-10.4,3.9-16.9c0.3-1.8,1.2-3.2,2.6-4.3c1.4-1.1,2.9-1.6,4.5-1.6
			c2.9,0,5.1,1.2,6.6,3.6c1.5,2.4,1.9,4.5,1.2,6.5c-3.1,12.2-5.5,23.5-7.2,33.7c-1.7,10.2-2.6,18.5-2.6,24.9c0,2.6-0.9,4.6-2.6,6
			C346,323.9,344.3,324.8,342.5,325.1z M379,362.8c-2.3,0-4.2-0.7-5.6-2.2c-1.5-1.5-2.2-3.3-2.2-5.6V222.2h-26
			c-2.8,0-4.8-0.9-6.1-2.6c-1.3-1.7-2-3.6-2-5.5c0-2.3,0.7-4.2,2.2-5.6c1.5-1.5,3.4-2.2,5.9-2.2h26v-46.6c0-2.8,0.8-4.8,2.4-6
			c1.6-1.2,3.4-1.8,5.4-1.8c2.1,0,4,0.7,5.5,2.2c1.6,1.5,2.3,3.3,2.3,5.6v46.6h26c2.3,0,4.2,0.7,5.8,2.2c1.6,1.5,2.3,3.3,2.3,5.6
			c0,2.9-0.9,5-2.7,6.2c-1.8,1.2-3.6,1.8-5.4,1.8h-26V355c0,2.6-0.9,4.6-2.6,5.9C382.5,362.2,380.8,362.8,379,362.8z M417,323.6
			c-2.6,0-4.6-0.7-6-2.2c-1.4-1.5-2.2-3.2-2.6-5.1c0-5.9-1.5-13.5-4.5-22.8c-3-9.3-6.7-20.9-11.1-34.8c-0.5-0.8-0.7-1.6-0.7-2.4
			c0-2,0.9-3.8,2.6-5.6c1.7-1.8,3.6-2.7,5.8-2.7c1.8,0,3.3,0.5,4.5,1.6c1.2,1.1,2.1,2.2,2.6,3.6c4.6,12.6,8.2,23.8,10.8,33.7
			c2.6,9.9,4.6,19.2,5.9,28.1c0.3,2.3-0.2,4.2-1.6,5.9C421.1,322.3,419.2,323.3,417,323.6z M415.5,198.2c-1,0.3-1.8,0.5-2.4,0.5
			c-1.5,0-2.9-0.4-4.4-1.3c-1.5-0.9-2.5-2.2-3.2-3.8l-9.3-24.5c-0.2-0.5-0.3-1-0.4-1.5c-0.1-0.5-0.1-1-0.1-1.5
			c0-2.3,0.8-4.1,2.3-5.5c1.6-1.4,3.3-2.1,5.3-2.1c3.6,0,6,1.6,7.3,4.9l9.6,24.3c0.2,0.7,0.3,1.2,0.4,1.7c0.1,0.5,0.1,1,0.1,1.5
			C420.6,193.9,418.9,196.4,415.5,198.2z M464.2,367.2c-3.1-0.3-5.2-1.4-6.4-3.2c-1.1-1.8-1.6-3.8-1.5-5.9
			c1.8-12.1,2.9-25.7,3.4-40.9c0.5-15.2,0.7-30.5,0.7-45.8v-27.2h-32.3c-2.1,0-4-0.7-5.5-2.2c-1.6-1.5-2.3-3.3-2.3-5.6
			c0-2.3,0.7-4.2,2.2-5.6c1.5-1.5,3.3-2.2,5.6-2.2h61.5c2.3,0,4.2,0.7,5.8,2.2c1.6,1.5,2.3,3.3,2.3,5.6c0,2.6-0.9,4.6-2.6,5.9
			c-1.7,1.3-3.6,2-5.5,2H476c0,23.4-0.1,42.5-0.4,57.6c-0.2,15-0.7,27.2-1.2,36.4c-0.6,9.2-1.3,16.7-2.3,22.4
			c-0.2,1.8-1,3.3-2.5,4.7C468.2,366.6,466.4,367.2,464.2,367.2z M432.2,186.4c-2.1,0-4-0.8-5.5-2.3c-1.6-1.6-2.3-3.4-2.3-5.5
			c0-2.6,0.9-4.6,2.6-5.9c1.7-1.3,3.5-2,5.3-2h55.6c2.4,0,4.4,0.7,5.9,2.2c1.5,1.5,2.2,3.3,2.2,5.6c0,2.1-0.8,4-2.3,5.5
			c-1.6,1.6-3.5,2.3-5.8,2.3H432.2z"/>
	</g>
	<g>
		<rect x="-59" y="46" class="st2" width="630" height="420"/>
		<line class="st2" x1="-59" y1="466" x2="-9.5" y2="416.5"/>
		<line class="st2" x1="-59" y1="46" x2="-9.5" y2="95.5"/>
		<line class="st2" x1="571" y1="46" x2="521.5" y2="95.5"/>
		<line class="st2" x1="571" y1="466" x2="521.5" y2="416.5"/>
		<rect x="-10" y="95" class="st2" width="532" height="322"/>
	</g>
	<g>
	</g>
	<g>
	</g>
	<g>
	</g>
	<g>
	</g>
	<g>
	</g>
	<g>
	</g>
</g>
</svg>
