<?xml version="1.0" standalone="no"?>
<!DOCTYPE svg PUBLIC "-//W3C//DTD SVG 20010904//EN"
 "http://www.w3.org/TR/2001/REC-SVG-20010904/DTD/svg10.dtd">
<svg version="1.0" xmlns="http://www.w3.org/2000/svg"
 width="700.000000pt" height="700.000000pt" viewBox="0 0 700.000000 700.000000"
 preserveAspectRatio="xMidYMid meet">
<metadata>
Created by potrace 1.14, written by Peter Selinger 2001-2017
</metadata>
<g transform="translate(0.000000,700.000000) scale(0.100000,-0.100000)"
fill="#000000" stroke="none">
<path d="M0 3500 l0 -3500 3500 0 3500 0 0 3500 0 3500 -3500 0 -3500 0 0
-3500z m6300 0 l0 -1890 -2800 0 -2800 0 0 1890 0 1890 2800 0 2800 0 0 -1890z"/>
<path d="M1075 5110 l140 -140 2285 0 2285 0 140 140 140 140 -2565 0 -2565 0
140 -140z"/>
<path d="M830 3500 c0 -907 3 -1650 8 -1650 4 0 69 62 145 138 l137 137 0
1375 0 1375 -138 138 c-75 75 -141 137 -145 137 -4 0 -7 -742 -7 -1650z"/>
<path d="M6017 5012 l-137 -137 0 -1375 0 -1375 138 -138 c75 -75 141 -137
145 -137 4 0 7 743 7 1650 0 908 -3 1650 -8 1650 -4 0 -69 -62 -145 -138z"/>
<path d="M1260 3500 l0 -1330 2240 0 2240 0 0 1330 0 1330 -2240 0 -2240 0 0
-1330z m935 884 c58 -75 105 -142 105 -148 0 -6 -7 -22 -16 -34 l-15 -22 216
0 216 0 -22 30 c-29 38 -26 44 89 175 110 124 130 137 170 108 48 -36 41 -58
-58 -178 -50 -60 -99 -116 -108 -122 -13 -11 35 -13 249 -13 145 0 269 -4 275
-8 15 -10 34 -47 34 -66 0 -9 -9 -25 -20 -36 -19 -19 -33 -20 -405 -20 l-385
0 0 -95 0 -95 323 0 c235 0 328 -4 346 -13 35 -17 47 -61 27 -92 l-16 -25
-340 0 -340 0 0 -125 0 -124 406 -3 c388 -3 406 -4 420 -22 23 -31 17 -72 -12
-95 -26 -20 -37 -21 -415 -21 l-389 0 -90 -112 c-49 -62 -90 -116 -90 -120 0
-5 206 -8 457 -8 411 0 458 -2 475 -17 18 -16 24 -59 10 -79 -20 -30 -55 -34
-328 -34 l-277 0 138 -132 c143 -138 215 -219 215 -244 0 -23 -46 -64 -71 -64
-16 0 -78 54 -203 179 -100 98 -205 197 -234 220 l-54 41 -117 0 -117 0 -106
-177 c-59 -98 -115 -195 -124 -216 -21 -45 -50 -55 -93 -33 -56 30 -46 63 88
294 39 67 71 124 71 126 0 3 -106 6 -236 8 -220 3 -237 4 -250 22 -17 24 -18
78 -2 94 9 9 88 12 292 12 155 0 286 4 291 8 6 4 43 51 84 104 40 54 79 103
87 109 8 6 14 15 14 20 0 5 -181 9 -410 9 l-410 0 -16 26 c-13 19 -15 32 -8
52 18 51 28 52 462 52 l402 0 0 125 0 125 -347 0 c-308 0 -348 2 -365 17 -24
21 -23 68 2 93 19 19 33 20 365 20 l345 0 0 95 0 95 -379 0 -380 0 -15 22
c-22 31 -20 61 5 84 19 17 44 19 298 24 l278 5 -98 125 c-54 69 -99 134 -99
146 0 30 36 64 70 64 26 0 42 -16 135 -136z m1979 55 c49 -38 38 -71 -65 -189
-220 -254 -334 -407 -421 -565 -51 -94 -80 -112 -126 -78 -42 31 -40 63 13
156 107 191 476 662 538 687 31 12 31 12 61 -11z m432 -47 c29 -19 34 -56 34
-256 l0 -206 123 0 c142 0 167 -10 167 -63 0 -65 -28 -77 -174 -77 l-116 0 0
-584 c0 -541 -1 -585 -17 -604 -27 -32 -64 -37 -96 -12 l-27 21 0 589 0 588
-130 4 c-139 3 -153 8 -165 58 -4 18 0 34 15 53 21 27 22 27 151 27 l129 0 0
217 c0 187 2 219 17 235 16 18 68 24 89 10z m221 -66 c16 -15 103 -235 103
-260 0 -28 -39 -66 -68 -66 -41 0 -57 24 -107 156 -41 107 -46 128 -37 149 19
42 76 53 109 21z m733 -108 c27 -29 25 -64 -5 -94 l-25 -25 -266 3 c-266 3
-266 3 -285 27 -25 30 -24 66 1 91 19 19 33 20 290 20 264 0 270 0 290 -22z
m-1355 -193 c45 -44 48 -37 -156 -307 -63 -84 -125 -168 -138 -186 l-23 -33
25 6 c17 5 32 0 51 -17 l26 -23 -11 -227 c-8 -164 -8 -287 0 -442 6 -119 8
-222 5 -230 -8 -20 -58 -39 -84 -31 -43 14 -48 38 -60 305 -8 185 -8 301 0
424 5 93 8 171 6 173 -2 2 -39 -66 -82 -152 -84 -166 -98 -180 -150 -156 -39
18 -50 53 -31 103 62 161 356 608 504 766 55 59 81 65 118 27z m1373 -305 c28
-26 28 -71 1 -96 -15 -14 -40 -20 -94 -22 l-73 -4 -5 -412 c-5 -417 -17 -583
-43 -623 -21 -34 -87 -32 -110 2 -14 22 -15 36 -5 122 15 124 30 482 31 726
l0 187 -149 0 c-135 0 -151 2 -175 21 -32 25 -35 70 -6 99 19 19 33 20 313 20
281 0 294 -1 315 -20z m-1193 -170 c24 -27 23 -56 -8 -192 -30 -129 -57 -300
-57 -366 0 -83 -78 -121 -123 -60 -19 26 -19 29 -3 170 14 116 56 331 82 420
14 48 76 64 109 28z m409 5 c30 -31 109 -284 147 -472 17 -82 19 -110 10 -129
-14 -31 -53 -47 -84 -35 -28 11 -41 42 -55 136 -7 39 -38 153 -72 255 -33 102
-60 190 -60 196 0 6 9 23 21 38 23 30 68 35 93 11z"/>
<path d="M1077 1892 c-75 -75 -137 -141 -137 -145 0 -4 1152 -7 2560 -7 1408
0 2560 3 2560 8 0 4 -62 69 -138 145 l-137 137 -2285 0 -2285 0 -138 -138z"/>
</g>
</svg>
